<?xml version="1.0" standalone="no"?>
<!DOCTYPE svg PUBLIC "-//W3C//DTD SVG 20010904//EN"
 "http://www.w3.org/TR/2001/REC-SVG-20010904/DTD/svg10.dtd">
<svg version="1.0" xmlns="http://www.w3.org/2000/svg"
 width="558.000000pt" height="447.000000pt" viewBox="0 0 558.000000 447.000000"
 preserveAspectRatio="xMidYMid meet">

<g transform="translate(0.000000,447.000000) scale(0.100000,-0.100000)"
fill="#000000" stroke="none">
<path d="M2766 4358 c-39 -66 -149 -244 -177 -285 -16 -23 -29 -44 -29 -47 0
-3 -25 -44 -56 -92 -31 -48 -64 -101 -74 -118 -15 -26 -195 -317 -265 -426
-12 -19 -69 -111 -127 -205 -99 -161 -342 -554 -486 -785 -35 -58 -79 -127
-97 -155 -18 -27 -70 -111 -115 -185 -46 -74 -98 -160 -117 -190 -19 -30 -77
-125 -130 -210 -187 -303 -226 -366 -258 -415 -66 -104 -155 -246 -155 -249 0
-2 -38 -64 -84 -137 -47 -74 -131 -208 -186 -299 -148 -240 -200 -325 -258
-418 l-52 -82 2690 0 2689 0 -47 78 c-27 42 -61 98 -78 124 -16 25 -51 83 -79
128 -27 45 -94 151 -147 237 -54 85 -98 156 -98 159 0 2 -31 52 -68 111 -38
59 -95 151 -127 203 -32 52 -73 118 -90 145 -18 28 -63 100 -100 160 -37 61
-82 133 -100 160 -76 121 -85 135 -85 145 0 5 -3 10 -7 10 -5 0 -21 24 -37 53
-17 28 -54 89 -83 134 -29 46 -53 85 -53 87 0 4 -72 121 -155 251 -18 28 -61
97 -97 155 -36 58 -95 152 -131 210 -36 58 -110 177 -163 265 -54 88 -137 223
-185 300 -48 77 -103 165 -122 195 -19 30 -80 129 -137 220 -101 161 -199 320
-267 430 -18 30 -53 87 -78 125 -24 39 -68 109 -97 158 -29 48 -55 87 -58 87
-3 0 -14 -15 -24 -32z m-416 -1334 c40 -21 52 -34 66 -70 12 -32 22 -44 37
-44 57 0 76 -70 27 -98 -34 -19 -39 -32 -12 -32 25 0 62 -36 62 -61 0 -12 -14
-28 -35 -40 -42 -25 -45 -44 -8 -54 40 -10 53 -24 53 -56 0 -22 -7 -32 -30
-44 -33 -17 -40 -45 -12 -45 10 0 28 -7 40 -16 33 -23 26 -63 -15 -89 -29 -18
-32 -24 -26 -55 3 -19 8 -38 12 -41 6 -7 75 0 215 21 60 9 99 9 160 0 122 -18
220 -28 229 -23 4 2 7 20 7 40 0 29 -7 42 -36 67 -46 40 -41 67 18 91 l41 16
-37 33 c-20 19 -36 39 -36 45 0 17 47 61 65 61 26 0 17 29 -15 45 -48 25 -36
88 20 100 38 8 38 17 1 33 -38 17 -46 50 -19 79 11 12 30 23 41 25 12 2 24 12
27 24 13 52 94 114 148 114 13 0 45 -10 73 -21 53 -23 83 -61 94 -119 4 -23
14 -39 28 -45 12 -6 26 -23 32 -39 8 -24 6 -31 -14 -47 -13 -10 -32 -19 -42
-19 -28 0 -23 -17 10 -34 50 -27 52 -81 3 -92 -46 -10 -52 -13 -52 -26 1 -7
15 -22 33 -33 21 -14 33 -30 35 -48 3 -25 -2 -30 -37 -44 -47 -18 -52 -35 -16
-51 25 -12 42 -52 30 -72 -4 -7 -22 -18 -40 -26 -26 -10 -34 -21 -39 -50 -4
-20 -5 -38 -3 -41 8 -7 129 -23 183 -23 28 0 66 -3 83 -6 l32 -7 -3 -111 -3
-111 -67 -3 -68 -3 0 -875 0 -874 -787 2 -788 3 -2 860 c-1 473 -2 866 -3 873
0 8 -18 12 -55 12 -37 0 -55 4 -56 13 -3 28 3 212 7 216 2 2 55 8 117 12 61 5
125 11 140 15 26 5 27 8 21 42 -8 47 -12 52 -31 52 -25 0 -53 30 -53 56 0 14
13 33 32 48 18 14 30 26 28 28 -3 2 -22 11 -42 21 -48 21 -51 54 -8 90 39 34
39 57 0 57 -55 0 -64 64 -14 96 32 21 30 28 -10 42 -55 20 -57 65 -5 96 22 13
31 27 35 58 11 66 84 123 162 127 12 1 45 -11 72 -25z"/>
<path d="M2214 2929 c-9 -18 -13 -41 -10 -55 7 -26 27 -29 99 -18 32 6 37 10
37 33 0 45 -26 71 -70 71 -34 0 -42 -4 -56 -31z"/>
<path d="M3304 2952 c-16 -10 -34 -48 -34 -71 0 -17 9 -20 64 -26 36 -4 69 -4
75 0 18 10 13 50 -10 79 -20 26 -69 36 -95 18z"/>
<path d="M2248 2763 c-22 -3 -28 -10 -28 -29 0 -27 11 -29 94 -18 40 6 47 10
44 28 -2 17 -10 21 -43 22 -22 1 -52 -1 -67 -3z"/>
<path d="M3260 2745 c0 -17 6 -25 18 -25 9 0 41 -3 70 -6 51 -7 52 -6 52 18 0
22 -5 26 -46 32 -83 11 -94 9 -94 -19z"/>
<path d="M2293 2632 c-57 -3 -63 -5 -63 -25 0 -45 13 -51 82 -41 61 9 63 10
63 38 0 33 1 33 -82 28z"/>
<path d="M3240 2606 c0 -31 3 -36 24 -36 13 0 44 -3 70 -6 l46 -7 0 37 0 36
-54 0 c-30 0 -61 3 -70 6 -13 5 -16 -1 -16 -30z"/>
<path d="M2308 2478 c-51 -9 -58 -13 -58 -33 0 -31 18 -36 87 -25 32 6 59 10
61 10 2 0 2 12 0 27 -4 32 -12 34 -90 21z"/>
<path d="M3227 2463 c-3 -15 -3 -30 -1 -32 8 -8 119 -20 125 -13 4 4 10 17 13
28 6 19 2 22 -41 29 -26 3 -58 9 -69 11 -17 5 -22 0 -27 -23z"/>
<path d="M2305 2331 c-38 -6 -40 -7 -37 -40 1 -19 4 -36 6 -38 5 -5 123 9 134
16 5 3 7 21 5 39 -6 35 -16 37 -108 23z"/>
<path d="M3208 2334 c-5 -4 -8 -20 -8 -35 0 -32 10 -36 90 -41 l55 -3 3 38 c3
33 1 37 -21 37 -13 0 -44 3 -68 6 -24 3 -47 2 -51 -2z"/>
<path d="M2755 2213 c-16 -2 -115 -12 -220 -24 -257 -27 -527 -59 -542 -64 -7
-2 -13 -16 -13 -30 l0 -25 830 0 830 0 0 29 c0 28 -1 28 -72 35 -40 4 -98 11
-128 16 -30 5 -109 14 -175 20 -66 6 -174 17 -240 24 -152 19 -232 24 -270 19z"/>
<path d="M2100 1150 l0 -830 700 0 700 0 0 830 0 830 -700 0 -700 0 0 -830z
m248 630 c92 -42 98 -174 9 -229 -119 -73 -262 66 -184 179 24 36 79 70 112
70 11 0 39 -9 63 -20z m532 5 c45 -23 70 -66 70 -120 0 -92 -67 -152 -159
-142 -38 4 -52 12 -83 47 -32 36 -38 50 -38 87 0 55 20 95 62 122 39 25 106
28 148 6z m520 -5 c53 -27 74 -69 67 -134 -4 -43 -10 -55 -42 -83 -75 -65
-173 -36 -210 60 -15 40 -15 45 4 88 36 82 105 108 181 69z m-445 -511 c116
-41 196 -125 245 -259 43 -115 25 -234 -56 -361 -83 -133 -286 -201 -452 -153
-128 37 -221 128 -268 262 -70 200 34 426 233 507 80 32 213 34 298 4z"/>
<path d="M2256 1694 c-18 -17 -18 -20 -10 -51 11 -42 84 -25 84 18 0 21 -26
49 -45 49 -7 0 -21 -7 -29 -16z"/>
<path d="M2772 1698 c-7 -7 -12 -24 -12 -38 0 -33 17 -50 50 -50 33 0 50 17
50 50 0 33 -17 50 -50 50 -14 0 -31 -5 -38 -12z"/>
<path d="M3309 1691 c-22 -17 -22 -21 -10 -45 16 -30 65 -37 75 -10 11 29 6
53 -13 64 -25 13 -25 13 -52 -9z"/>
<path d="M2735 1201 c-93 -24 -173 -94 -217 -188 -27 -56 -30 -72 -26 -136 4
-73 35 -156 75 -202 27 -30 92 -70 145 -90 61 -23 173 -16 239 14 61 27 127
97 155 163 32 73 33 183 2 247 -57 120 -150 187 -272 195 -39 3 -84 2 -101 -3z
m170 -271 c29 0 56 -4 59 -8 6 -10 -33 -72 -73 -117 -15 -16 -39 -49 -54 -71
-16 -23 -39 -52 -53 -65 l-25 -24 7 103 7 102 -52 0 c-52 0 -62 8 -36 30 8 6
31 42 51 78 21 37 48 81 61 98 12 17 23 36 23 42 0 6 6 12 13 15 9 3 13 -20
15 -90 l3 -93 54 0z"/>
</g>
</svg>
